<svg xmlns="http://www.w3.org/2000/svg" viewBox="0 0 174.66 132.09"><defs><style>.cls-1{fill:#1f1e1f;}.cls-2{fill:#fbea27;}.cls-3{fill:#393f7f;}.cls-4{fill:#fff;}</style></defs><g id="Capa_2" data-name="Capa 2"><g id="Capa_1-2" data-name="Capa 1"><path class="cls-1" d="M80.41,18.52,84.58,0l.23,0C89.49,13,94.16,26,99,39.36L112.08.58c.69,2.23,1.33,4.23,1.93,6.24l19.92,66.23c.8,2.67,1.55,5.35,2.42,8,.33,1,.23,1.21-.86,1.21-16.25,0-32.5,0-48.74-.06-6.47,0-12.93,0-19.4,0-1.08,0-1.22-.31-1-1.27.54-2.3.5-2.34-1.76-2.07q-10,1.22-20,2.46c-1.79.22-2.39-.27-2.4-2.11Q42,56.17,41.78,33.11,41.65,19,41.46,4.94c0-2.25.73-2.74,2.8-1.91,9.43,3.73,18.91,7.33,28.11,11.6C75,15.86,77.62,17.17,80.41,18.52Zm4.91-8.25c-.69,3.08-1.3,5.94-2,8.78A1.2,1.2,0,0,0,84,20.61a21.25,21.25,0,0,1,5.82,4.59c2.33,2.85,1.64,5.52-1.73,7a71.09,71.09,0,0,1-7.48,2.59c-.55.18-.86.33-1,1-.9,4.12-1.85,8.22-2.82,12.32-.16.69,0,1,.69,1.17,4.15,1.27,8.3,2.55,12.41,3.94A123.07,123.07,0,0,1,108,60.47c2.24,1.17,4.47,2.39,5.89,4.62a3.36,3.36,0,0,1-.42,4.3,8.44,8.44,0,0,1-3.72,2.08,110.53,110.53,0,0,1-11.93,2.68c-3.26.66-6.57,1.06-9.84,1.73a51,51,0,0,1-5.88.78c-3.68.3-7.34,1-11,1.43-.6.08-1.29.16-1.2.86s.8.28,1.22.28q29.86.06,59.74.08h1.79a4.73,4.73,0,0,0-.1-.62l-8-26.65q-2.8-9.3-5.59-18.58-3.16-10.56-6.36-21.12c-.09-.29,0-.86-.57-.89s-.57.43-.68.78q-5.39,15.9-10.75,31.82c-.44,1.31-.9,2.62-1.35,3.94l-.3,0Zm-41,5.61c-.08,5.9.48,12.38.29,18.88,0,1.14,0,2.27,0,3.41,0,.82.31,1.08,1.12.92,1.36-.27,2.74-.45,4.1-.7l11.7-2.18c1.94-.36,3.85-.94,5.77-1.3,2.91-.53,5.76-1.23,8.63-1.89a1.93,1.93,0,0,0,1.66-1.71c.53-2.62,1-5.25,1.74-7.83.56-1.93.4-2.12-1.46-3-.47-.22-.92-.48-1.39-.71-5.52-2.7-11.16-5.11-16.83-7.47-4.67-2-9.45-3.63-14-5.75-1-.46-1.32-.21-1.31.86C44.36,10,44.33,12.66,44.33,15.88Zm.47,41.39c.2,4.2,0,9,.24,13.8a35.44,35.44,0,0,1,0,6.35c-.1.74.42.89,1,.83,1.77-.19,3.53-.42,5.31-.61,4.61-.51,9.18-1.41,13.82-1.71,2.42-.16,2.4-.19,3-2.65a27,27,0,0,1,.45-2.81c.89-2.46,1.19-5.06,1.87-7.57.88-3.26,1.44-6.61,2.29-9.88.49-1.89.59-2-1.62-2.67C68.57,49.59,66,49,63.41,48.2c-5.73-1.72-11.49-3.31-17.21-5-1.17-.35-1.43-.09-1.42,1.06C44.83,48.39,44.8,52.54,44.8,57.27Zm26.06,17c-.17.88.27.91,1,.8,2.44-.35,4.9-.64,7.34-1,4.08-.59,8.17-1.17,12.24-1.83,2.45-.4,4.86-1.12,7.32-1.39a61.76,61.76,0,0,0,6.78-1.25,34.42,34.42,0,0,0,4.65-1.48c.74-.28,1.35-1,.81-1.74a11.27,11.27,0,0,0-2-1.87,24.86,24.86,0,0,0-5-2.75c-3.56-1.59-7.22-2.9-10.86-4.28-5.45-2.06-11.06-3.59-16.55-5.5-.41-.14-.71-.15-.84.44-.5,2.38-1,4.74-1.59,7.11-.65,2.83-1.34,5.65-2,8.48C71.71,70.08,71.3,72.17,70.86,74.25Zm5.67-38.4c-8.78,2.22-17.5,3.88-26.29,5.37.09.15.11.21.14.22C57.93,43.63,65.49,45.8,73,48c.74.22.78-.15.89-.67C74.76,43.57,75.63,39.81,76.53,35.85Zm11.26-7.52c0-.56,0-.55-.34-1.17-.94-1.6-2.54-2.38-4-3.39-1-.69-1.26-.35-1.45.59-.4,2-.83,4-1.2,5.95-.07.33-.52.68-.06,1.05s.86.09,1.23,0c1.48-.48,3-1,4.39-1.57C87.1,29.47,87.89,29.11,87.79,28.33Z" transform="translate(-2.96)"/><path class="cls-2" d="M85.32,10.27,98.89,48l.3,0c.45-1.32.91-2.63,1.35-3.94q5.38-15.91,10.75-31.82c.11-.35.12-.82.68-.78s.48.6.57.89q3.21,10.55,6.36,21.12,2.8,9.28,5.59,18.58l8,26.65a4.73,4.73,0,0,1,.1.62h-1.79q-29.86,0-59.74-.08c-.42,0-1.14.32-1.22-.28s.6-.78,1.2-.86c3.67-.48,7.33-1.13,11-1.43A51,51,0,0,0,88,75.88c3.27-.67,6.58-1.07,9.84-1.73a110.53,110.53,0,0,0,11.93-2.68,8.44,8.44,0,0,0,3.72-2.08,3.36,3.36,0,0,0,.42-4.3c-1.42-2.23-3.65-3.45-5.89-4.62a123.07,123.07,0,0,0-18.1-7.28c-4.11-1.39-8.26-2.67-12.41-3.94-.71-.22-.85-.48-.69-1.17,1-4.1,1.92-8.2,2.82-12.32.14-.64.45-.79,1-1A71.09,71.09,0,0,0,88.1,32.2c3.37-1.48,4.06-4.15,1.73-7A21.25,21.25,0,0,0,84,20.61a1.2,1.2,0,0,1-.67-1.56C84,16.21,84.63,13.35,85.32,10.27Z" transform="translate(-2.96)"/><path class="cls-3" d="M44.33,15.88c0-3.22,0-5.84,0-8.45,0-1.07.31-1.32,1.31-.86,4.6,2.12,9.38,3.8,14,5.75,5.67,2.36,11.31,4.77,16.83,7.47.47.23.92.49,1.39.71,1.86.86,2,1.05,1.46,3-.76,2.58-1.21,5.21-1.74,7.83A1.93,1.93,0,0,1,76,33c-2.87.66-5.72,1.36-8.63,1.89-1.92.36-3.83.94-5.77,1.3l-11.7,2.18c-1.36.25-2.74.43-4.1.7-.81.16-1.14-.1-1.12-.92,0-1.14-.06-2.27,0-3.41C44.81,28.26,44.25,21.78,44.33,15.88Z" transform="translate(-2.96)"/><path class="cls-3" d="M44.8,57.27c0-4.73,0-8.88,0-13,0-1.15.25-1.41,1.42-1.06,5.72,1.71,11.48,3.3,17.21,5,2.56.77,5.16,1.39,7.72,2.15,2.21.66,2.11.78,1.62,2.67-.85,3.27-1.41,6.62-2.29,9.88-.68,2.51-1,5.11-1.87,7.57a27,27,0,0,0-.45,2.81c-.57,2.46-.55,2.49-3,2.65-4.64.3-9.21,1.2-13.82,1.71-1.78.19-3.54.42-5.31.61-.59.06-1.11-.09-1-.83a35.44,35.44,0,0,0,0-6.35C44.77,66.27,45,61.47,44.8,57.27Z" transform="translate(-2.96)"/><path class="cls-3" d="M70.86,74.25c.44-2.08.85-4.17,1.32-6.25.63-2.83,1.32-5.65,2-8.48.55-2.37,1.09-4.73,1.59-7.11.13-.59.43-.58.84-.44,5.49,1.91,11.1,3.44,16.55,5.5,3.64,1.38,7.3,2.69,10.86,4.28a24.86,24.86,0,0,1,5,2.75,11.27,11.27,0,0,1,2,1.87c.54.71-.07,1.46-.81,1.74a34.42,34.42,0,0,1-4.65,1.48,61.76,61.76,0,0,1-6.78,1.25c-2.46.27-4.87,1-7.32,1.39-4.07.66-8.16,1.24-12.24,1.83-2.44.35-4.9.64-7.34,1C71.13,75.16,70.69,75.13,70.86,74.25Z" transform="translate(-2.96)"/><path class="cls-3" d="M87.79,28.33c.1.78-.69,1.14-1.42,1.43-1.44.58-2.91,1.09-4.39,1.57-.37.12-.82.36-1.23,0s0-.72.06-1.05c.37-2,.8-4,1.2-5.95.19-.94.47-1.28,1.45-.59,1.45,1,3.05,1.79,4,3.39C87.81,27.78,87.82,27.77,87.79,28.33Z" transform="translate(-2.96)"/><path class="cls-4" d="M3,93.17H13.8c6,0,8.27,3.13,8.27,6.35a5.65,5.65,0,0,1-3.16,5.38,5.92,5.92,0,0,1,3.87,5.66c0,4.24-3.34,7.43-8.61,7.43H3ZM13.18,103c2.55,0,3.61-1.15,3.61-2.89s-1.38-2.76-3.45-2.76H8.22V103Zm-5,10.88h4.84c2.9,0,4.22-1.21,4.22-3.46,0-2-1.29-3.28-4.24-3.28H8.22Z" transform="translate(-2.96)"/><path class="cls-4" d="M27,93.17h5.36v20.42H44.7l-.62,4.4H27Z" transform="translate(-2.96)"/><path class="cls-4" d="M52.6,93.17V108c0,4.76,2.45,6.17,5.13,6.17,3.07,0,5-1.67,5-6.17V93.17H68.1v14.52c0,8.48-5,10.65-10.45,10.65s-10.42-2.26-10.42-10.55V93.17Z" transform="translate(-2.96)"/><path class="cls-4" d="M90.84,107.28H79v6.31H92.07l-.64,4.4H73.77V93.17H91.36v4.4H79v5.31H90.84Z" transform="translate(-2.96)"/><path class="cls-4" d="M125.53,108.68c0-4.24.07-9,.17-11.79h-.17c-1.16,5.06-3.65,13.33-6,21.1h-4.56c-1.81-6.79-4.38-16.21-5.47-21.17h-.17c.22,2.91.32,8,.32,12.28V118h-4.89V93.17h8c1.94,6.48,4.11,14.62,4.85,18.32h0c.61-3.27,3.34-12,5.41-18.32h7.69V118h-5.17Z" transform="translate(-2.96)"/><path class="cls-4" d="M153.73,107.28H141.87v6.31H155l-.64,4.4H136.66V93.17h17.6v4.4H141.87v5.31h11.86Z" transform="translate(-2.96)"/><path class="cls-4" d="M164.73,97.57h-7.54v-4.4h20.42v4.4H170.1V118h-5.37Z" transform="translate(-2.96)"/><path class="cls-4" d="M3.24,130.61a3.91,3.91,0,0,0,2,.56c1.13,0,1.79-.6,1.79-1.46s-.46-1.26-1.61-1.7c-1.39-.49-2.26-1.22-2.26-2.42s1.11-2.32,2.77-2.32a4,4,0,0,1,1.89.42l-.31.9a3.42,3.42,0,0,0-1.62-.41c-1.17,0-1.61.7-1.61,1.28,0,.8.52,1.2,1.7,1.65,1.44.56,2.18,1.26,2.18,2.51s-1,2.46-3,2.46A4.32,4.32,0,0,1,3,131.53Z" transform="translate(-2.96)"/><path class="cls-4" d="M18.2,127.59c0,2.94-1.79,4.5-4,4.5s-3.84-1.75-3.84-4.33,1.69-4.49,4-4.49S18.2,125.06,18.2,127.59Zm-6.63.14c0,1.83,1,3.46,2.73,3.46S17,129.58,17,127.64c0-1.69-.88-3.47-2.72-3.47S11.57,125.86,11.57,127.73Z" transform="translate(-2.96)"/><path class="cls-4" d="M20.89,123.41H22V131h3.64V132H20.89Z" transform="translate(-2.96)"/><path class="cls-4" d="M28.78,123.41v5.06c0,1.91.85,2.72,2,2.72s2.08-.83,2.08-2.72v-5.06H34v5c0,2.62-1.38,3.7-3.23,3.7s-3.07-1-3.07-3.65v-5Z" transform="translate(-2.96)"/><path class="cls-4" d="M43.11,131.67a5.29,5.29,0,0,1-2.25.41,4,4,0,0,1-4.22-4.32,4.25,4.25,0,0,1,4.46-4.49,4.58,4.58,0,0,1,2,.38l-.26.9a4.1,4.1,0,0,0-1.73-.35,3.17,3.17,0,0,0-3.33,3.52,3.1,3.1,0,0,0,3.28,3.43,4.47,4.47,0,0,0,1.8-.35Z" transform="translate(-2.96)"/><path class="cls-4" d="M46.86,123.41V132h-1.1v-8.54Z" transform="translate(-2.96)"/><path class="cls-4" d="M57.35,127.59c0,2.94-1.79,4.5-4,4.5s-3.84-1.75-3.84-4.33,1.69-4.49,4-4.49S57.35,125.06,57.35,127.59Zm-6.63.14c0,1.83,1,3.46,2.73,3.46s2.73-1.61,2.73-3.55c0-1.69-.88-3.47-2.72-3.47S50.72,125.86,50.72,127.73Z" transform="translate(-2.96)"/><path class="cls-4" d="M60,132v-8.54h1.21L64,127.73a23.5,23.5,0,0,1,1.54,2.78l0,0c-.1-1.14-.12-2.17-.12-3.51v-3.57h1V132H65.34l-2.71-4.33a26.67,26.67,0,0,1-1.6-2.85h0c.07,1.08.09,2.1.09,3.52V132Z" transform="translate(-2.96)"/><path class="cls-4" d="M74.07,128H70.75V131h3.7V132h-4.8v-8.54h4.61v.93H70.75V127h3.32Z" transform="translate(-2.96)"/><path class="cls-4" d="M77,130.61a4,4,0,0,0,2,.56c1.13,0,1.78-.6,1.78-1.46s-.45-1.26-1.61-1.7c-1.39-.49-2.25-1.22-2.25-2.42s1.1-2.32,2.76-2.32a3.93,3.93,0,0,1,1.89.42l-.3.9a3.43,3.43,0,0,0-1.63-.41c-1.16,0-1.61.7-1.61,1.28,0,.8.52,1.2,1.7,1.65,1.45.56,2.18,1.26,2.18,2.51s-1,2.46-3,2.46a4.37,4.37,0,0,1-2.18-.55Z" transform="translate(-2.96)"/><path class="cls-4" d="M89.71,123.41V132h-1.1v-8.54Z" transform="translate(-2.96)"/><path class="cls-4" d="M92.9,132v-8.54h1.2l2.74,4.32a23.33,23.33,0,0,1,1.53,2.78l0,0c-.1-1.14-.13-2.17-.13-3.51v-3.57h1V132H98.2l-2.71-4.33a26.67,26.67,0,0,1-1.6-2.85h0c.06,1.08.09,2.1.09,3.52V132Z" transform="translate(-2.96)"/><path class="cls-4" d="M102.5,123.53a14.66,14.66,0,0,1,2.34-.18,4.9,4.9,0,0,1,3.46,1.06,4,4,0,0,1,1.21,3.07,4.52,4.52,0,0,1-1.23,3.32A5.27,5.27,0,0,1,104.5,132a18.74,18.74,0,0,1-2-.1Zm1.1,7.55a7.18,7.18,0,0,0,1.12.06,3.28,3.28,0,0,0,3.63-3.62c0-2-1.12-3.3-3.45-3.3a5.83,5.83,0,0,0-1.3.12Z" transform="translate(-2.96)"/><path class="cls-4" d="M113.31,123.41v5.06c0,1.91.84,2.72,2,2.72s2.08-.83,2.08-2.72v-5.06h1.12v5c0,2.62-1.38,3.7-3.23,3.7s-3.07-1-3.07-3.65v-5Z" transform="translate(-2.96)"/><path class="cls-4" d="M121.51,130.61a4,4,0,0,0,2,.56c1.13,0,1.79-.6,1.79-1.46s-.46-1.26-1.61-1.7c-1.4-.49-2.26-1.22-2.26-2.42s1.1-2.32,2.76-2.32a3.93,3.93,0,0,1,1.89.42l-.3.9a3.42,3.42,0,0,0-1.62-.41c-1.17,0-1.61.7-1.61,1.28,0,.8.52,1.2,1.7,1.65,1.44.56,2.17,1.26,2.17,2.51s-1,2.46-3,2.46a4.37,4.37,0,0,1-2.18-.55Z" transform="translate(-2.96)"/><path class="cls-4" d="M130.8,124.35h-2.6v-.94h6.32v.94h-2.61V132H130.8Z" transform="translate(-2.96)"/><path class="cls-4" d="M136.74,123.53a10.92,10.92,0,0,1,2.11-.18,3.49,3.49,0,0,1,2.47.69,2.17,2.17,0,0,1,.68,1.63,2.26,2.26,0,0,1-1.61,2.18v0a2.15,2.15,0,0,1,1.25,1.73,13.39,13.39,0,0,0,.66,2.34h-1.14a10.79,10.79,0,0,1-.57-2c-.25-1.18-.71-1.62-1.71-1.66h-1V132h-1.1Zm1.1,3.89H139c1.18,0,1.92-.65,1.92-1.63s-.79-1.58-2-1.59a4.63,4.63,0,0,0-1.09.1Z" transform="translate(-2.96)"/><path class="cls-4" d="M145.92,123.41V132h-1.1v-8.54Z" transform="translate(-2.96)"/><path class="cls-4" d="M150.49,129.27l-.88,2.68h-1.14l2.9-8.54h1.33l2.91,8.54h-1.18l-.91-2.68Zm2.8-.87-.83-2.45c-.19-.56-.32-1.07-.45-1.56h0c-.13.5-.27,1-.43,1.54l-.84,2.47Z" transform="translate(-2.96)"/><path class="cls-4" d="M158.13,123.41h1.1V131h3.65V132h-4.75Z" transform="translate(-2.96)"/><path class="cls-4" d="M169.8,128h-3.32V131h3.7V132h-4.8v-8.54H170v.93h-3.51V127h3.32Z" transform="translate(-2.96)"/><path class="cls-4" d="M172.72,130.61a4,4,0,0,0,2,.56c1.13,0,1.79-.6,1.79-1.46s-.46-1.26-1.61-1.7c-1.4-.49-2.26-1.22-2.26-2.42s1.1-2.32,2.76-2.32a3.93,3.93,0,0,1,1.89.42l-.3.9a3.43,3.43,0,0,0-1.63-.41c-1.16,0-1.6.7-1.6,1.28,0,.8.51,1.2,1.69,1.65,1.45.56,2.18,1.26,2.18,2.51s-1,2.46-3,2.46a4.37,4.37,0,0,1-2.18-.55Z" transform="translate(-2.96)"/></g></g></svg>