<svg xmlns="http://www.w3.org/2000/svg" viewBox="0 0 132.87 114.97"><defs><style>.cls-1{fill:#1f1e1f;}.cls-2{fill:#fbea27;}.cls-3{fill:#393f7f;}</style></defs><g id="Capa_2" data-name="Capa 2"><g id="Capa_1-2" data-name="Capa 1"><path class="cls-1" d="M54.44,25.89Q57.37,12.9,60.27,0l.32,0c6.54,18.18,13.08,36.35,19.79,55C86.55,36.8,92.56,19,98.71.81c1,3.12,1.85,5.92,2.7,8.73l27.84,92.58c1.12,3.72,2.16,7.47,3.38,11.17.46,1.38.33,1.69-1.2,1.68q-34.07-.09-68.13-.08c-9,0-18.08,0-27.11,0-1.52,0-1.71-.43-1.4-1.77.75-3.21.69-3.27-2.46-2.89q-14,1.68-27.95,3.43c-2.5.31-3.33-.38-3.36-2.94Q.73,78.51.45,46.28.26,26.58,0,6.91C0,3.76,1,3.08,3.91,4.23,17.09,9.45,30.34,14.48,43.2,20.45,46.9,22.16,50.54,24,54.44,25.89ZM61.3,14.35c-1,4.3-1.81,8.31-2.77,12.28a1.68,1.68,0,0,0,.94,2.18,29.34,29.34,0,0,1,8.14,6.42c3.25,4,2.29,7.71-2.42,9.77a99.54,99.54,0,0,1-10.46,3.64c-.77.24-1.2.45-1.4,1.35-1.25,5.75-2.58,11.48-3.93,17.21-.23,1,0,1.33,1,1.64,5.8,1.78,11.6,3.57,17.34,5.51C76.32,77.27,84.92,80.27,93,84.52c3.12,1.64,6.25,3.35,8.23,6.46a4.71,4.71,0,0,1-.59,6,11.59,11.59,0,0,1-5.2,2.91c-5.44,1.75-11.09,2.62-16.67,3.75-4.57.92-9.19,1.48-13.76,2.42a68.61,68.61,0,0,1-8.22,1.08c-5.15.43-10.25,1.34-15.38,2-.84.11-1.81.22-1.69,1.19s1.12.4,1.71.4q41.75.09,83.5.11h2.51a7.34,7.34,0,0,0-.14-.86q-5.62-18.63-11.25-37.26-3.91-13-7.81-26c-3-9.84-5.9-19.69-8.91-29.52-.12-.41,0-1.2-.79-1.25s-.79.61-1,1.09l-15,44.48c-.62,1.84-1.26,3.67-1.89,5.51l-.42,0ZM4,22.19c-.11,8.25.66,17.32.4,26.4,0,1.59.06,3.17,0,4.76,0,1.16.43,1.51,1.57,1.28,1.9-.37,3.82-.62,5.73-1,5.45-1,10.89-2,16.35-3,2.71-.5,5.39-1.31,8.06-1.81,4.07-.74,8.06-1.72,12.07-2.64a2.69,2.69,0,0,0,2.31-2.39c.75-3.66,1.38-7.35,2.44-10.94.78-2.7.56-3-2-4.18-.65-.3-1.29-.66-1.94-1-7.71-3.78-15.6-7.15-23.53-10.45-6.53-2.72-13.21-5.07-19.64-8C4.43,8.54,4,8.9,4,10.38,4,14,4,17.7,4,22.19Zm.65,57.87c.28,5.87,0,12.58.34,19.28a48.78,48.78,0,0,1,0,8.88c-.13,1,.59,1.24,1.41,1.16,2.48-.27,5-.59,7.42-.86,6.45-.7,12.84-2,19.32-2.39,3.39-.22,3.37-.26,4.16-3.69a35.88,35.88,0,0,1,.62-3.93c1.25-3.45,1.67-7.08,2.61-10.59,1.24-4.56,2-9.23,3.2-13.8.69-2.65.84-2.82-2.25-3.74-3.58-1.06-7.21-1.93-10.8-3-8-2.4-16.05-4.62-24.06-7-1.63-.49-2-.13-2,1.49C4.71,67.64,4.66,73.44,4.66,80.06Zm36.43,23.73c-.24,1.23.38,1.27,1.36,1.12,3.41-.5,6.84-.9,10.26-1.39,5.7-.83,11.42-1.63,17.11-2.56,3.43-.56,6.79-1.56,10.23-1.94a86,86,0,0,0,9.48-1.75A50,50,0,0,0,96,95.21c1-.39,1.88-1.44,1.12-2.43a14.74,14.74,0,0,0-2.84-2.62,33.47,33.47,0,0,0-6.91-3.84c-5-2.23-10.09-4.06-15.18-6-7.61-2.88-15.45-5-23.13-7.68-.57-.2-1-.21-1.17.61-.7,3.32-1.47,6.63-2.23,9.94-.91,4-1.87,7.9-2.76,11.86C42.28,98,41.7,100.88,41.09,103.79ZM49,50.11c-12.28,3.1-24.46,5.42-36.75,7.5.13.22.15.3.19.31q15.83,4.59,31.67,9.19c1,.31,1.08-.21,1.24-.94C46.55,60.9,47.76,55.64,49,50.11ZM64.75,39.6c0-.78,0-.77-.47-1.64-1.32-2.22-3.55-3.33-5.57-4.73-1.38-1-1.77-.49-2,.82-.57,2.77-1.17,5.53-1.69,8.31-.08.47-.71,1-.08,1.48s1.2.12,1.73-.05c2.06-.66,4.12-1.37,6.13-2.18C63.79,41.19,64.89,40.69,64.75,39.6Z"/><path class="cls-2" d="M61.3,14.35,80.27,67l.42,0c.63-1.84,1.27-3.67,1.89-5.51l15-44.48c.16-.48.17-1.14,1-1.09s.67.84.79,1.25c3,9.83,6,19.68,8.91,29.52q3.9,13,7.81,26,5.61,18.63,11.25,37.26a7.34,7.34,0,0,1,.14.86h-2.51q-41.74,0-83.5-.11c-.59,0-1.6.45-1.71-.4s.85-1.08,1.69-1.19c5.13-.67,10.23-1.58,15.38-2A68.61,68.61,0,0,0,65,106.07c4.57-.94,9.19-1.5,13.76-2.42,5.58-1.13,11.23-2,16.67-3.75a11.59,11.59,0,0,0,5.2-2.91,4.71,4.71,0,0,0,.59-6c-2-3.11-5.11-4.82-8.23-6.46-8.09-4.25-16.69-7.25-25.31-10.17C62,72.41,56.16,70.62,50.36,68.84c-1-.31-1.19-.67-1-1.64,1.35-5.73,2.68-11.46,3.93-17.21.2-.9.63-1.11,1.4-1.35A99.54,99.54,0,0,0,65.19,45c4.71-2.06,5.67-5.79,2.42-9.77a29.34,29.34,0,0,0-8.14-6.42,1.68,1.68,0,0,1-.94-2.18C59.49,22.66,60.34,18.65,61.3,14.35Z"/><path class="cls-3" d="M4,22.19C4,17.7,4,14,4,10.38c0-1.48.43-1.84,1.82-1.2,6.43,3,13.11,5.32,19.64,8,7.93,3.3,15.82,6.67,23.53,10.45.65.32,1.29.68,1.94,1,2.6,1.21,2.82,1.48,2,4.18-1.06,3.59-1.69,7.28-2.44,10.94a2.69,2.69,0,0,1-2.31,2.39c-4,.92-8,1.9-12.07,2.64-2.67.5-5.35,1.31-8.06,1.81-5.46,1-10.9,2-16.35,3-1.91.35-3.83.6-5.73,1-1.14.23-1.59-.12-1.57-1.28,0-1.59-.08-3.17,0-4.76C4.67,39.51,3.9,30.44,4,22.19Z"/><path class="cls-3" d="M4.66,80.06c0-6.62,0-12.42,0-18.21,0-1.62.34-2,2-1.49,8,2.39,16.06,4.61,24.06,7,3.59,1.08,7.22,1.95,10.8,3,3.09.92,2.94,1.09,2.25,3.74-1.18,4.57-2,9.24-3.2,13.8-.94,3.51-1.36,7.14-2.61,10.59a35.88,35.88,0,0,0-.62,3.93c-.79,3.43-.77,3.47-4.16,3.69-6.48.43-12.87,1.69-19.32,2.39-2.47.27-4.94.59-7.42.86-.82.08-1.54-.13-1.41-1.16a48.78,48.78,0,0,0,0-8.88C4.62,92.64,4.94,85.93,4.66,80.06Z"/><path class="cls-3" d="M41.09,103.79c.61-2.91,1.19-5.83,1.84-8.73.89-4,1.85-7.91,2.76-11.86.76-3.31,1.53-6.62,2.23-9.94.17-.82.6-.81,1.17-.61,7.68,2.66,15.52,4.8,23.13,7.68,5.09,1.93,10.21,3.76,15.18,6a33.47,33.47,0,0,1,6.91,3.84,14.74,14.74,0,0,1,2.84,2.62c.76,1-.1,2-1.12,2.43a50,50,0,0,1-6.5,2.06A86,86,0,0,1,80.05,99c-3.44.38-6.8,1.38-10.23,1.94-5.69.93-11.41,1.73-17.11,2.56-3.42.49-6.85.89-10.26,1.39C41.47,105.06,40.85,105,41.09,103.79Z"/><path class="cls-3" d="M64.75,39.6c.14,1.09-1,1.59-2,2-2,.81-4.07,1.52-6.13,2.18-.53.17-1.15.51-1.73.05s0-1,.08-1.48c.52-2.78,1.12-5.54,1.69-8.31.26-1.31.65-1.78,2-.82,2,1.4,4.25,2.51,5.57,4.73C64.79,38.83,64.8,38.82,64.75,39.6Z"/></g></g></svg>