<svg xmlns="http://www.w3.org/2000/svg" viewBox="0 0 205.66 205.66"><defs><style>.cls-1{fill:#fff;}.cls-2{fill:#1f1e1f;}.cls-3{fill:#fbea27;}.cls-4{fill:#393f7f;}</style></defs><g id="Capa_2" data-name="Capa 2"><g id="Capa_1-2" data-name="Capa 1"><circle class="cls-1" cx="102.83" cy="102.83" r="102.83"/><path class="cls-2" d="M94.64,65c2.09-9.26,4.16-18.45,6.23-27.65l.35,0c7,19.45,14,38.89,21.18,58.87,6.59-19.5,13-38.55,19.61-58,1,3.33,2,6.33,2.88,9.33Q159.8,97,174.68,146.56c1.2,4,2.31,8,3.62,11.95.49,1.48.35,1.81-1.29,1.81q-36.45-.1-72.89-.09c-9.67,0-19.34,0-29,0-1.63,0-1.84-.46-1.5-1.89.8-3.44.74-3.5-2.63-3.09q-15,1.8-29.91,3.66c-2.67.33-3.57-.4-3.59-3.15q-.32-34.47-.61-69-.21-21.06-.48-42.12c0-3.37,1.07-4.1,4.18-2.86,14.1,5.58,28.28,11,42,17.35C86.57,61,90.47,63,94.64,65ZM102,52.66c-1,4.61-1.95,8.89-3,13.14a1.81,1.81,0,0,0,1,2.34A31.19,31.19,0,0,1,108.73,75c3.48,4.26,2.45,8.25-2.59,10.46A105.7,105.7,0,0,1,95,89.34c-.82.26-1.28.49-1.49,1.45-1.35,6.15-2.77,12.29-4.21,18.42-.25,1,0,1.42,1,1.75,6.2,1.9,12.4,3.82,18.55,5.9,9.22,3.12,18.43,6.33,27.08,10.88,3.34,1.75,6.68,3.57,8.8,6.91a5,5,0,0,1-.62,6.43,12.53,12.53,0,0,1-5.57,3.11c-5.83,1.87-11.87,2.8-17.84,4-4.88,1-9.83,1.58-14.72,2.59A73.79,73.79,0,0,1,97.17,152c-5.51.46-11,1.43-16.46,2.15-.9.11-1.94.23-1.81,1.27s1.21.43,1.83.43q44.67.09,89.34.12h2.69c-.07-.41-.09-.68-.16-.93q-6-19.94-12-39.86-4.19-13.89-8.35-27.78c-3.16-10.53-6.31-21.07-9.53-31.58-.13-.44,0-1.29-.84-1.34s-.85.65-1,1.17l-16.07,47.58c-.66,2-1.35,3.93-2,5.89l-.45,0C115.55,90.34,108.82,71.65,102,52.66Zm-61.3,8.39c-.13,8.83.71,18.53.42,28.25,0,1.69.07,3.39,0,5.09,0,1.23.45,1.61,1.67,1.37,2-.4,4.09-.67,6.13-1,5.84-1.08,11.66-2.19,17.49-3.26,2.91-.53,5.77-1.41,8.64-1.94,4.35-.8,8.62-1.85,12.91-2.83a2.86,2.86,0,0,0,2.47-2.56c.8-3.91,1.48-7.85,2.6-11.7.85-2.89.61-3.18-2.17-4.47-.7-.33-1.38-.71-2.08-1-8.25-4-16.69-7.65-25.18-11.18-7-2.91-14.13-5.42-21-8.6-1.49-.69-2-.3-2,1.28C40.72,52.33,40.69,56.24,40.69,61.05Zm.7,61.91c.29,6.28,0,13.46.36,20.63a52,52,0,0,1,0,9.5c-.14,1.1.64,1.33,1.52,1.24,2.64-.29,5.29-.62,7.93-.91,6.91-.76,13.73-2.11,20.68-2.56,3.61-.24,3.59-.28,4.44-4,.33-1.39.21-2.92.67-4.2,1.33-3.69,1.78-7.57,2.79-11.32,1.32-4.88,2.16-9.88,3.43-14.77.73-2.84.89-3-2.41-4-3.83-1.13-7.72-2.07-11.56-3.22-8.56-2.58-17.18-4.94-25.74-7.5-1.74-.53-2.13-.14-2.11,1.59C41.43,109.68,41.39,115.88,41.39,123Zm39,25.39c-.26,1.32.41,1.36,1.45,1.2,3.65-.53,7.32-1,11-1.49,6.1-.88,12.22-1.74,18.31-2.73,3.66-.6,7.26-1.68,10.94-2.08a93.29,93.29,0,0,0,10.14-1.87,53.56,53.56,0,0,0,7-2.21c1.09-.41,2-1.54,1.2-2.6a16.21,16.21,0,0,0-3-2.8,36.21,36.21,0,0,0-7.39-4.11c-5.32-2.38-10.8-4.34-16.25-6.4-8.14-3.09-16.53-5.38-24.74-8.22-.62-.22-1.07-.23-1.26.65-.75,3.55-1.57,7.09-2.38,10.63-1,4.23-2,8.45-3,12.69C81.63,142.11,81,145.24,80.36,148.35Zm8.48-57.43c-13.14,3.32-26.17,5.8-39.32,8,.14.23.16.32.2.33q17,4.91,33.89,9.83c1.1.33,1.15-.22,1.33-1C86.2,102.47,87.49,96.84,88.84,90.92Zm16.83-11.25c0-.83,0-.82-.51-1.75-1.4-2.38-3.79-3.56-6-5.06-1.48-1-1.89-.52-2.17.88-.61,3-1.25,5.92-1.81,8.89-.09.5-.76,1-.09,1.58s1.29.14,1.86,0c2.2-.71,4.4-1.47,6.55-2.34C104.64,81.38,105.82,80.84,105.67,79.67Z"/><path class="cls-3" d="M102,52.66c6.83,19,13.56,37.68,20.28,56.37l.45,0c.68-2,1.37-3.92,2-5.89L140.82,55.6c.17-.52.18-1.22,1-1.17s.71.9.84,1.34c3.22,10.51,6.37,21,9.53,31.58q4.17,13.89,8.35,27.78,6,19.94,12,39.86c.07.25.09.52.16.93h-2.69q-44.67,0-89.34-.12c-.62,0-1.71.48-1.83-.43s.91-1.16,1.81-1.27c5.49-.72,11-1.69,16.46-2.15a73.79,73.79,0,0,0,8.79-1.16c4.89-1,9.84-1.6,14.72-2.59,6-1.21,12-2.14,17.84-4a12.53,12.53,0,0,0,5.57-3.11,5,5,0,0,0,.62-6.43c-2.12-3.34-5.46-5.16-8.8-6.91-8.65-4.55-17.86-7.76-27.08-10.88-6.15-2.08-12.35-4-18.55-5.9-1.07-.33-1.28-.72-1-1.75,1.44-6.13,2.86-12.27,4.21-18.42.21-1,.67-1.19,1.49-1.45a105.7,105.7,0,0,0,11.19-3.88c5-2.21,6.07-6.2,2.59-10.46A31.19,31.19,0,0,0,100,68.14a1.81,1.81,0,0,1-1-2.34C100,61.55,101,57.27,102,52.66Z"/><path class="cls-4" d="M40.69,61.05c0-4.81,0-8.72,0-12.64,0-1.58.47-2,2-1.28,6.87,3.18,14,5.69,21,8.6,8.49,3.53,16.93,7.14,25.18,11.18.7.34,1.38.72,2.08,1,2.78,1.29,3,1.58,2.17,4.47-1.12,3.85-1.8,7.79-2.6,11.7A2.86,2.86,0,0,1,88,86.69c-4.29,1-8.56,2-12.91,2.83-2.87.53-5.73,1.41-8.64,1.94C60.61,92.53,54.79,93.64,49,94.72c-2,.37-4.1.64-6.13,1-1.22.24-1.7-.14-1.67-1.37,0-1.7-.09-3.4,0-5.09C41.4,79.58,40.56,69.88,40.69,61.05Z"/><path class="cls-4" d="M41.39,123c0-7.08,0-13.28,0-19.48,0-1.73.37-2.12,2.11-1.59,8.56,2.56,17.18,4.92,25.74,7.5,3.84,1.15,7.73,2.09,11.56,3.22,3.3,1,3.14,1.16,2.41,4-1.27,4.89-2.11,9.89-3.43,14.77-1,3.75-1.46,7.63-2.79,11.32-.46,1.28-.34,2.81-.67,4.2-.85,3.68-.83,3.72-4.44,4-6.95.45-13.77,1.8-20.68,2.56-2.64.29-5.29.62-7.93.91-.88.09-1.66-.14-1.52-1.24a52,52,0,0,0,0-9.5C41.34,136.42,41.68,129.24,41.39,123Z"/><path class="cls-4" d="M80.36,148.35c.65-3.11,1.27-6.24,2-9.34,1-4.24,2-8.46,3-12.69.81-3.54,1.63-7.08,2.38-10.63.19-.88.64-.87,1.26-.65,8.21,2.84,16.6,5.13,24.74,8.22,5.45,2.06,10.93,4,16.25,6.4a36.21,36.21,0,0,1,7.39,4.11,16.21,16.21,0,0,1,3,2.8c.81,1.06-.11,2.19-1.2,2.6a53.56,53.56,0,0,1-7,2.21A93.29,93.29,0,0,1,122,143.25c-3.68.4-7.28,1.48-10.94,2.08-6.09,1-12.21,1.85-18.31,2.73-3.66.53-7.33,1-11,1.49C80.77,149.71,80.1,149.67,80.36,148.35Z"/><path class="cls-4" d="M105.67,79.67c.15,1.17-1,1.71-2.12,2.15-2.15.87-4.35,1.63-6.55,2.34-.57.19-1.24.55-1.86,0s0-1.08.09-1.58c.56-3,1.2-5.93,1.81-8.89.28-1.4.69-1.91,2.17-.88,2.16,1.5,4.55,2.68,6,5.06C105.71,78.85,105.72,78.84,105.67,79.67Z"/></g></g></svg>